# Blender v2.80 (sub 75) OBJ File: 'grass.blend'
# www.blender.org
o OBJ_Path2
v -37.206703 3.050006 -36.586590
v -38.136871 3.050006 -37.206703
v -38.136871 2.908472 -36.586590
v -28.835197 2.908472 -34.726257
v -27.905027 2.908472 -35.346367
v -28.835197 2.908472 -35.346367
v -35.346367 2.908472 -34.726257
v -36.276539 2.908472 -35.346367
v -36.276539 2.908472 -34.726257
v -33.486031 2.908472 -34.726257
v -34.416203 2.908472 -35.346367
v -34.416203 2.908472 -34.726257
v -31.625694 2.908472 -34.726257
v -32.555866 2.908472 -35.346367
v -32.555866 2.908472 -34.726257
v -29.765362 2.908472 -34.726257
v -30.695528 2.908472 -35.346367
v -30.695528 2.908472 -34.726257
v -37.206703 2.908472 -34.726257
v -38.136871 2.908472 -35.346367
v -38.136871 2.908472 -34.726257
v -25.449551 0.250004 -25.406910
v -22.969109 0.250004 -24.769123
v -22.969105 0.250004 -25.406910
v -25.449551 0.250004 -24.184357
v -25.449551 0.250004 -24.769123
v -22.969105 0.500004 -26.044693
v -25.449551 0.500004 -25.406910
v -22.969105 0.500004 -25.406910
v -25.449551 0.500004 -26.664806
v -22.969105 0.500004 -26.664806
v -25.449551 1.750005 -32.245808
v -25.449551 1.500005 -31.625694
v -25.449551 1.750005 -31.625694
v -25.449551 0.750005 -27.905031
v -22.969105 0.750004 -27.284918
v -22.969101 0.750005 -27.905031
v -25.449551 0.750004 -27.284918
v -22.969105 0.750004 -26.664806
v -25.449551 1.500005 -31.005587
v -25.449551 1.250005 -30.385475
v -25.449551 1.500005 -30.385475
v -25.449551 1.000005 -29.145256
v -25.449551 1.250005 -29.145256
v -25.449551 1.250005 -29.765362
v -25.449551 1.000005 -27.905031
v -25.449551 1.000005 -28.525141
v -22.969105 1.000005 -28.525141
v -22.969105 1.000005 -29.145252
v -25.449551 0.750004 -26.664806
v -22.969105 1.250005 -29.765362
v -22.969101 1.250005 -30.385475
v -22.969105 1.250005 -29.145252
v -25.449551 0.000004 -24.184357
v -25.449551 0.500004 -26.044693
v -22.969105 1.500005 -31.625694
v -22.969101 1.500005 -31.005587
v -22.969101 1.750005 -32.865917
v -25.449551 1.750005 -32.865917
v -22.969105 1.750005 -31.625694
v -22.969101 1.750005 -32.245808
v -22.969105 2.000005 -33.486031
v -25.449551 2.000005 -32.865917
v -22.969101 2.000005 -32.865917
v -25.449551 2.250005 -33.486031
v -22.969105 2.250005 -33.486031
v -22.969105 2.250006 -35.346367
v -26.044693 2.500005 -34.106148
v -22.969105 2.500006 -35.346367
v -24.184357 2.500006 -36.586601
v -26.044693 2.750005 -34.106148
v -24.184357 2.750006 -36.586601
v -26.044693 2.750006 -36.586590
v -22.969109 0.000004 -24.184357
v -22.969109 0.250004 -24.184357
v -22.969101 1.000005 -27.905031
v -22.969101 1.500005 -30.385475
v -27.334852 3.000005 -34.106148
v -26.714745 3.000006 -36.586590
v -27.334852 3.000006 -36.586590
v -26.044693 3.000006 -36.586590
v -26.714745 3.000005 -34.106148
v -26.044693 3.000005 -34.106148
v -38.953117 2.908472 -34.726257
v -38.953117 2.908472 -35.346367
v -31.625694 2.908472 -35.346367
v -33.486031 2.908472 -35.346367
v -33.486031 3.050006 -36.586590
v -32.555866 3.050006 -36.586590
v -35.346367 2.908472 -35.346367
v -37.206703 2.908472 -35.346367
v -36.276539 3.050006 -36.586590
v -29.765362 2.908472 -35.346367
v -29.765362 3.050006 -36.586590
v -28.835197 3.050006 -36.586590
v -35.346367 3.050006 -36.586590
v -34.416203 3.050006 -36.586590
v -31.625694 3.050006 -36.586590
v -30.695528 3.050006 -36.586590
v -38.953117 3.050006 -37.206703
v -38.953117 2.908472 -36.586590
v -39.769363 3.000006 -36.586590
v -39.769363 3.050006 -37.206703
v -39.769363 3.000006 -35.346367
v -38.953117 3.050015 -34.106152
v -28.835197 3.050015 -34.106152
v -29.765362 3.050015 -34.106152
v -36.276539 3.050015 -34.106152
v -37.206703 3.050015 -34.106152
v -34.416203 3.050015 -34.106152
v -35.346367 3.050015 -34.106152
v -32.555866 3.050015 -34.106152
v -33.486031 3.050015 -34.106152
v -30.695528 3.050015 -34.106152
v -31.625694 3.050015 -34.106152
v -38.136871 3.050015 -34.106152
v -27.905027 2.954240 -34.726257
v -37.206703 3.050006 -37.206703
v -25.449551 2.000005 -33.486031
v -25.449551 2.500005 -33.486031
v -27.905027 3.000006 -34.106152
v -27.905027 3.000006 -36.586590
vt 0.049731 0.189852
vt 0.005000 0.122756
vt 0.049731 0.122756
vt 0.183922 0.793713
vt 0.139191 0.860809
vt 0.139191 0.793713
vt 0.183922 0.324043
vt 0.139191 0.256947
vt 0.183922 0.256947
vt 0.183922 0.458235
vt 0.139191 0.391139
vt 0.183922 0.391139
vt 0.183922 0.592426
vt 0.139191 0.525330
vt 0.183922 0.525330
vt 0.183922 0.726617
vt 0.139191 0.659522
vt 0.183922 0.659522
vt 0.183922 0.189852
vt 0.139191 0.122756
vt 0.183922 0.122756
vt 0.234797 0.383399
vt 0.280802 0.562320
vt 0.234797 0.562320
vt 0.322983 0.383399
vt 0.280802 0.383399
vt 0.520048 0.183922
vt 0.566053 0.005000
vt 0.566053 0.183922
vt 0.475317 0.005000
vt 0.475317 0.183922
vt 0.329779 0.480217
vt 0.347813 0.435486
vt 0.329779 0.435486
vt 0.510553 0.467658
vt 0.555283 0.646579
vt 0.510553 0.646580
vt 0.555283 0.467658
vt 0.600014 0.646579
vt 0.023384 0.503196
vt 0.041417 0.458466
vt 0.023384 0.458466
vt 0.416752 0.190369
vt 0.398718 0.190369
vt 0.398718 0.235099
vt 0.421698 0.194965
vt 0.421698 0.239696
vt 0.439731 0.194965
vt 0.656697 0.259308
vt 0.611967 0.438230
vt 0.611967 0.259308
vt 0.567236 0.438230
vt 0.005000 0.441614
vt 0.005000 0.486344
vt 0.023033 0.441614
vt 0.234797 0.005000
vt 0.279527 0.183922
vt 0.234797 0.183922
vt 0.324257 0.005000
vt 0.324258 0.183922
vt 0.396836 0.383399
vt 0.378803 0.383399
vt 0.378803 0.425580
vt 0.005000 0.343567
vt 0.005000 0.389572
vt 0.023033 0.343567
vt 0.234797 0.369291
vt 0.279527 0.190369
vt 0.279527 0.369291
vt 0.324257 0.190369
vt 0.374510 0.005000
vt 0.329779 0.183922
vt 0.329779 0.005000
vt 0.419240 0.183922
vt 0.374510 0.183922
vt 0.424762 0.183922
vt 0.469493 0.005000
vt 0.469493 0.183922
vt 0.462439 0.198029
vt 0.462439 0.376951
vt 0.328247 0.376951
vt 0.516361 0.346631
vt 0.426901 0.568482
vt 0.337439 0.480823
vt 0.648112 0.190369
vt 0.469189 0.324561
vt 0.469190 0.190369
vt 0.354291 0.425580
vt 0.372324 0.383399
vt 0.372324 0.425580
vt 0.329779 0.429404
vt 0.347813 0.383399
vt 0.347813 0.429404
vt 0.392240 0.235100
vt 0.374207 0.235100
vt 0.392240 0.190369
vt 0.402086 0.263904
vt 0.357355 0.263904
vt 0.357355 0.281938
vt 0.041417 0.380638
vt 0.023384 0.380638
vt 0.041417 0.335907
vt 0.367728 0.190369
vt 0.367728 0.235100
vt 0.349695 0.235100
vt 0.225908 0.023033
vt 0.225908 0.005000
vt 0.181178 0.023033
vt 0.228652 0.901937
vt 0.049731 0.946667
vt 0.049731 0.901937
vt 0.049731 0.995000
vt 0.228652 0.946667
vt 0.228652 0.995000
vt 0.352759 0.258958
vt 0.397490 0.240925
vt 0.352759 0.240925
vt 0.023033 0.196497
vt 0.023033 0.330689
vt 0.005000 0.330689
vt 0.234797 0.568768
vt 0.234797 0.586801
vt 0.360046 0.568768
vt 0.337439 0.324561
vt 0.355473 0.324561
vt 0.337439 0.190369
vt 0.014192 0.386463
vt 0.014192 0.434795
vt 0.032225 0.434795
vt 0.183922 0.063878
vt 0.139191 0.063878
vt 0.139191 0.592426
vt 0.139191 0.458235
vt 0.049731 0.458235
vt 0.049731 0.525330
vt 0.139191 0.324043
vt 0.139191 0.189852
vt 0.049731 0.256947
vt 0.139191 0.726617
vt 0.049731 0.726617
vt 0.049731 0.793713
vt 0.049731 0.324043
vt 0.049731 0.391139
vt 0.049731 0.592426
vt 0.049731 0.659522
vt 0.005000 0.063878
vt 0.049731 0.063878
vt 0.049731 0.005000
vt 0.005000 0.005000
vt 0.139191 0.005000
vt 0.228652 0.063878
vt 0.228652 0.793713
vt 0.228652 0.726617
vt 0.228652 0.256947
vt 0.228652 0.189852
vt 0.228652 0.391139
vt 0.228652 0.324043
vt 0.228652 0.525330
vt 0.228652 0.458235
vt 0.228652 0.659522
vt 0.228652 0.592426
vt 0.228652 0.122756
vt 0.183922 0.860809
vt 0.005000 0.189852
vt 0.322983 0.562320
vt 0.520048 0.005000
vt 0.600014 0.467658
vt 0.656697 0.438230
vt 0.567236 0.259308
vt 0.279527 0.005000
vt 0.234797 0.190369
vt 0.324257 0.369291
vt 0.419240 0.005000
vt 0.424762 0.005000
vt 0.561092 0.389561
vt 0.228652 0.860809
vt 0.049731 0.860809
vn -0.1467 0.9644 0.2201
vn 0.0000 1.0000 0.0000
vn -1.0000 0.0000 0.0000
vn 1.0000 0.0000 0.0000
vn -0.1585 0.9874 0.0000
vn 0.7143 0.0000 -0.6999
vn -0.0000 0.0000 -1.0000
vn 0.0000 0.9936 0.1134
vn 0.0000 0.9749 0.2225
vn 0.1114 0.9938 0.0000
vn 0.0000 0.9968 0.0804
vn 0.2682 0.9392 -0.2144
vn 0.0000 0.9749 -0.2225
vn -0.0479 0.9738 -0.2223
vn -0.0490 0.9961 -0.0735
vn 0.0000 0.9973 -0.0736
vn 0.0000 0.9973 0.0736
vn 0.0535 0.9959 0.0735
vn -0.1495 0.9824 0.1121
vn 0.1087 0.9692 0.2212
vn 0.0535 0.9959 -0.0735
s 1
f 1/1/1 2/2/1 3/3/1
f 4/4/2 5/5/2 6/6/2
f 7/7/2 8/8/2 9/9/2
f 10/10/2 11/11/2 12/12/2
f 13/13/2 14/14/2 15/15/2
f 16/16/2 17/17/2 18/18/2
f 19/19/2 20/20/2 21/21/2
f 22/22/2 23/23/2 24/24/2
f 25/25/2 23/23/2 26/26/2
f 27/27/2 28/28/2 29/29/2
f 30/30/2 27/27/2 31/31/2
f 32/32/3 33/33/3 34/34/3
f 35/35/2 36/36/2 37/37/2
f 38/38/2 39/39/2 36/36/2
f 40/40/3 41/41/3 42/42/3
f 43/43/3 44/44/3 45/45/3
f 46/46/3 47/47/3 35/48/3
f 46/49/2 48/50/2 47/51/2
f 49/52/2 47/51/2 48/50/2
f 50/53/3 38/54/3 30/55/3
f 41/56/2 51/57/2 52/58/2
f 51/57/2 44/59/2 53/60/2
f 54/61/3 25/62/3 26/63/3
f 28/64/3 55/65/3 22/66/3
f 56/67/2 40/68/2 57/69/2
f 42/70/2 57/69/2 40/68/2
f 32/71/2 58/72/2 59/73/2
f 32/71/2 60/74/2 61/75/2
f 62/76/2 63/77/2 64/78/2
f 65/79/2 66/80/2 67/81/2
f 68/82/2 69/83/2 70/84/2
f 71/85/2 72/86/2 73/87/2
f 74/88/4 23/89/4 75/90/4
f 24/91/4 27/92/4 29/93/4
f 39/94/4 31/95/4 36/96/4
f 48/97/4 76/98/4 37/99/4
f 53/100/4 49/101/4 51/102/4
f 57/103/4 77/104/4 52/105/4
f 60/106/4 56/107/4 61/108/4
f 78/109/2 79/110/2 80/111/2
f 81/112/2 82/113/2 83/114/2
f 80/111/5 5/5/5 78/109/5
f 58/115/4 62/116/4 64/117/4
f 67/118/4 66/119/4 62/120/4
f 69/121/6 67/122/6 70/123/6
f 72/124/7 70/125/7 73/126/7
f 79/127/7 81/128/7 73/129/7
f 84/130/2 20/20/2 85/131/2
f 18/18/2 86/132/2 13/13/2
f 15/15/2 87/133/2 10/10/2
f 14/14/8 88/134/8 87/133/8
f 86/132/8 89/135/8 14/14/8
f 12/12/2 90/136/2 7/7/2
f 9/9/2 91/137/2 19/19/2
f 8/8/8 1/1/8 91/137/8
f 90/136/8 92/138/8 8/8/8
f 4/4/2 93/139/2 16/16/2
f 6/6/8 94/140/8 93/139/8
f 5/5/8 95/141/8 6/6/8
f 11/11/8 96/142/8 90/136/8
f 87/133/8 97/143/8 11/11/8
f 17/17/8 98/144/8 86/132/8
f 93/139/8 99/145/8 17/17/8
f 3/3/9 100/146/9 101/147/9
f 85/131/2 3/3/2 101/147/2
f 91/137/2 3/3/2 20/20/2
f 102/148/10 85/131/10 101/147/10
f 102/148/11 100/146/11 103/149/11
f 104/150/10 85/131/10 102/148/10
f 104/150/12 105/151/12 84/130/12
f 106/152/13 16/16/13 107/153/13
f 108/154/13 19/19/13 109/155/13
f 110/156/13 7/7/13 111/157/13
f 112/158/13 10/10/13 113/159/13
f 114/160/13 13/13/13 115/161/13
f 116/162/13 84/130/13 105/151/13
f 109/155/13 21/21/13 116/162/13
f 107/153/13 18/18/13 114/160/13
f 115/161/13 15/15/13 112/158/13
f 113/159/13 12/12/13 110/156/13
f 111/157/13 9/9/13 108/154/13
f 106/152/14 117/163/14 4/4/14
f 1/1/2 118/164/2 2/2/2
f 4/4/15 117/163/15 5/5/15
f 7/7/2 90/136/2 8/8/2
f 10/10/2 87/133/2 11/11/2
f 13/13/2 86/132/2 14/14/2
f 16/16/2 93/139/2 17/17/2
f 19/19/2 91/137/2 20/20/2
f 22/22/2 26/26/2 23/23/2
f 25/25/2 75/165/2 23/23/2
f 27/27/2 55/166/2 28/28/2
f 30/30/2 55/166/2 27/27/2
f 35/35/2 38/38/2 36/36/2
f 38/38/2 50/167/2 39/39/2
f 46/49/2 76/168/2 48/50/2
f 49/52/2 43/169/2 47/51/2
f 41/56/2 45/170/2 51/57/2
f 51/57/2 45/170/2 44/59/2
f 56/67/2 33/171/2 40/68/2
f 42/70/2 77/172/2 57/69/2
f 32/71/2 61/75/2 58/72/2
f 32/71/2 34/173/2 60/74/2
f 62/76/2 119/174/2 63/77/2
f 68/82/2 120/175/2 69/83/2
f 78/109/2 82/113/2 79/110/2
f 81/112/2 79/110/2 82/113/2
f 121/176/16 78/109/16 117/163/16
f 80/111/17 122/177/17 5/5/17
f 5/5/16 117/163/16 78/109/16
f 84/130/2 21/21/2 20/20/2
f 18/18/2 17/17/2 86/132/2
f 15/15/2 14/14/2 87/133/2
f 14/14/8 89/135/8 88/134/8
f 86/132/8 98/144/8 89/135/8
f 12/12/2 11/11/2 90/136/2
f 9/9/2 8/8/2 91/137/2
f 8/8/8 92/138/8 1/1/8
f 90/136/8 96/142/8 92/138/8
f 4/4/2 6/6/2 93/139/2
f 6/6/8 95/141/8 94/140/8
f 5/5/18 122/177/18 95/141/18
f 11/11/8 97/143/8 96/142/8
f 87/133/8 88/134/8 97/143/8
f 17/17/8 99/145/8 98/144/8
f 93/139/8 94/140/8 99/145/8
f 3/3/9 2/2/9 100/146/9
f 85/131/2 20/20/2 3/3/2
f 91/137/19 1/1/19 3/3/19
f 102/148/20 101/147/20 100/146/20
f 104/150/10 84/130/10 85/131/10
f 106/152/13 4/4/13 16/16/13
f 108/154/13 9/9/13 19/19/13
f 110/156/13 12/12/13 7/7/13
f 112/158/13 15/15/13 10/10/13
f 114/160/13 18/18/13 13/13/13
f 116/162/13 21/21/13 84/130/13
f 109/155/13 19/19/13 21/21/13
f 107/153/13 16/16/13 18/18/13
f 115/161/13 13/13/13 15/15/13
f 113/159/13 10/10/13 12/12/13
f 111/157/13 7/7/13 9/9/13
f 106/152/21 121/176/21 117/163/21
