# Blender v2.80 (sub 75) OBJ File: 'rock_3.blend'
# www.blender.org
o Icosphere.003_Icosphere.001
v 0.812304 0.049127 0.400042
v 3.143965 2.066317 0.399301
v 0.913679 1.365212 1.731849
v 2.470824 4.447785 -0.217805
v 1.668936 4.067605 -1.144495
v -1.362886 2.755277 1.450379
v -1.163633 2.520998 -0.098820
v 0.554052 2.370663 -1.867617
v 3.017321 7.978603 -1.398786
v 0.931902 4.588066 1.792273
v 2.160658 4.200590 0.845022
v 1.270010 8.328934 1.778993
v -1.298586 5.619602 1.498301
v -0.412832 5.298280 1.710339
v -2.194502 9.885757 1.562208
v -1.102118 4.741418 -0.346247
v -1.174429 4.800673 0.670252
v -2.398733 8.249373 -0.843110
v 0.323111 4.262541 -1.638209
v -0.264143 4.428940 -0.808786
v -0.276831 6.414840 -2.421723
v 3.276892 8.725570 0.084559
v -0.258585 8.860325 2.139071
v -2.425768 9.288538 0.576486
v -1.779219 7.439361 -1.912867
v 1.249048 6.854333 -2.353260
v 2.569411 12.134764 0.586618
v 2.381983 11.474163 -1.591283
v 1.757353 13.562786 -0.203313
v -0.748873 12.498585 1.728998
v 1.229811 11.523749 2.466244
v -0.161772 14.834177 -0.007603
v -3.374727 11.709900 -0.882880
v -2.988752 11.786305 0.747220
v -2.776953 13.475872 -0.745490
v -1.459761 9.801596 -2.420113
v -2.573175 10.499838 -1.856503
v -2.044912 13.115912 -2.291401
v 1.106852 10.137406 -2.262093
v -0.234289 9.680320 -2.481608
v 0.129648 12.424347 -2.405568
v -0.217626 14.059031 -1.517077
vt 0.180744 0.075111
vt 0.200437 0.092147
vt 0.181601 0.086226
vt 0.233736 0.016600
vt 0.213622 0.021812
vt 0.230525 0.008773
vt 0.162373 0.097966
vt 0.325311 0.261058
vt 0.302456 0.252187
vt 0.304434 0.265271
vt 0.305705 0.280210
vt 0.263556 0.006626
vt 0.181754 0.113446
vt 0.192132 0.110173
vt 0.184610 0.145040
vt 0.162916 0.122158
vt 0.170397 0.119444
vt 0.155349 0.158189
vt 0.285681 0.267361
vt 0.285181 0.258776
vt 0.256054 0.271557
vt 0.211796 0.226250
vt 0.216756 0.224845
vt 0.216863 0.208072
vt 0.269864 0.019154
vt 0.171700 0.149528
vt 0.278265 0.251782
vt 0.242233 0.251242
vt 0.247278 0.259567
vt 0.262895 0.280592
vt 0.203976 0.204361
vt 0.298657 0.023394
vt 0.293079 0.005000
vt 0.310719 0.016722
vt 0.167558 0.180256
vt 0.184270 0.172023
vt 0.172517 0.199982
vt 0.226827 0.271893
vt 0.226182 0.258125
vt 0.211912 0.270733
vt 0.226854 0.179469
vt 0.236257 0.173571
vt 0.231796 0.151477
vt 0.205177 0.176632
vt 0.216503 0.180493
vt 0.213430 0.157317
vt 0.216363 0.143511
vt 0.237979 0.148437
vt 0.237046 0.280116
vt 0.011517 0.562465
vt 0.017749 0.584552
vt 0.005000 0.584081
vt 0.150430 0.188510
vt 0.148641 0.174240
vt 0.016096 0.600761
vt 0.038642 0.596305
vt 0.293497 0.039269
vt 0.199682 0.147702
vt 0.194407 0.165343
vt 0.229552 0.199420
vt 0.266514 0.033465
vt 0.189041 0.194865
vt 0.288320 0.271267
vt 0.231648 0.025577
vt 0.200429 0.227897
vt 0.209845 0.242229
vt 0.187972 0.244799
vt 0.207665 0.261836
vn 0.5368 -0.6202 0.5720
vn 0.7475 0.0395 -0.6631
vn -0.4554 -0.6157 0.6431
vn -0.7805 -0.6251 -0.0059
vn -0.6035 -0.5905 -0.5358
vn 0.7786 -0.3041 -0.5489
vn 0.5995 -0.0514 0.7987
vn -0.2556 -0.0681 0.9644
vn -0.9348 -0.3521 -0.0460
vn -0.7858 -0.3929 -0.4776
vn 0.9805 -0.1790 -0.0814
vn 0.2237 -0.0168 0.9745
vn -0.9207 -0.1984 0.3362
vn -0.8982 -0.3664 -0.2428
vn 0.1307 -0.3068 -0.9428
vn 0.8951 0.3994 -0.1982
vn -0.0045 0.5974 0.8019
vn -0.9315 0.2993 0.2065
vn -0.4758 -0.0499 -0.8781
vn 0.1595 0.0062 -0.9872
vn 0.1114 0.4927 -0.8630
vn -0.0419 0.0332 -0.9986
vn -0.0424 0.0330 -0.9986
vn -0.0462 0.0310 -0.9985
vn -0.0471 0.0305 -0.9984
vn -0.3075 0.8843 -0.3515
vn -0.8890 0.1055 -0.4455
vn -0.5684 0.2533 -0.7828
vn -0.3207 0.8474 -0.4233
vn -0.4921 0.6102 0.6209
vn -0.4735 0.5991 0.6457
vn 0.4722 0.7769 -0.4164
vn 0.4873 0.6449 0.5888
vn 0.5288 0.6208 0.5787
vn 0.5658 0.4833 -0.6680
vn 0.4821 0.5803 -0.6563
vn 0.3763 0.1030 -0.9207
vn 0.1502 0.0339 -0.9881
vn 0.0503 -0.0190 -0.9986
vn -0.0519 -0.0176 -0.9985
vn -0.5052 -0.1153 -0.8552
vn -0.9075 -0.2289 -0.3522
vn -0.8771 -0.2521 -0.4088
vn -0.9448 -0.2290 0.2344
vn -0.9078 -0.2286 0.3515
vn -0.4442 0.1899 0.8756
vn -0.3209 0.0633 0.9450
vn 0.1560 -0.2059 0.9661
vn 0.8259 -0.1086 0.5533
vn 0.9634 0.2221 -0.1503
vn 0.9555 0.1600 -0.2478
vn 0.4401 0.0306 -0.8974
vn -0.4019 -0.1400 -0.9049
vn -0.5701 -0.5202 -0.6359
vn -0.5533 -0.5178 -0.6525
vn -0.9482 -0.2648 0.1758
vn -0.9494 -0.2616 0.1735
vn -0.9479 -0.2653 0.1762
vn -0.9496 -0.2612 0.1731
vn -0.9572 -0.2644 0.1180
vn -0.2478 0.0755 0.9659
vn -0.3318 -0.0986 0.9382
vn -0.1200 -0.1135 0.9863
vn 0.6426 0.0206 0.7659
vn 0.6485 -0.0322 0.7605
vn 0.9527 -0.1959 0.2324
vn 0.4526 0.0443 -0.8906
vn 0.5781 -0.2498 -0.7768
vn 0.2784 -0.3466 -0.8957
vn -0.8186 -0.0304 -0.5735
vn -0.7121 0.0760 -0.6980
vn -0.5048 -0.0818 -0.8593
vn -0.9972 0.0196 -0.0721
vn -0.9902 0.0403 -0.1335
vn -0.9847 0.0250 -0.1724
vn -0.2365 -0.0109 0.9716
vn -0.1496 -0.0451 0.9877
vn -0.0704 -0.0183 0.9973
vn 0.3600 0.1555 -0.9199
vn 0.6481 -0.1043 -0.7544
vn 0.4987 -0.5767 -0.6471
vn 0.6068 -0.0183 0.7946
vn 0.5006 0.0501 0.8642
vn 0.8804 0.3357 0.3350
s 1
f 1/1/1 2/2/1 3/3/1
f 4/4/2 2/5/2 5/6/2
f 1/1/3 3/3/3 6/7/3
f 1/8/4 6/9/4 7/10/4
f 1/8/5 7/10/5 8/11/5
f 4/4/6 5/6/6 9/12/6
f 10/13/7 11/14/7 12/15/7
f 13/16/8 14/17/8 15/18/8
f 16/19/9 17/20/9 18/21/9
f 19/22/10 20/23/10 21/24/10
f 4/4/11 9/12/11 22/25/11
f 10/13/12 12/15/12 23/26/12
f 13/27/13 15/28/13 24/29/13
f 16/19/14 18/21/14 25/30/14
f 19/22/15 21/24/15 26/31/15
f 27/32/16 28/33/16 29/34/16
f 30/35/17 31/36/17 32/37/17
f 33/38/18 34/39/18 35/40/18
f 36/41/19 37/42/19 38/43/19
f 39/44/20 40/45/20 41/46/20
f 41/46/21 38/43/21 42/47/21
f 41/46/22 40/45/23 38/43/24
f 40/45/23 36/41/25 38/43/24
f 38/43/26 35/48/26 42/47/26
f 38/43/27 37/42/27 35/48/27
f 37/49/28 33/38/28 35/40/28
f 35/50/29 32/51/29 42/52/29
f 35/53/30 34/54/30 32/37/30
f 34/54/31 30/35/31 32/37/31
f 32/51/32 29/55/32 42/52/32
f 32/51/33 31/56/33 29/55/33
f 31/57/34 27/32/34 29/34/34
f 29/58/35 41/46/35 42/47/35
f 29/58/36 28/59/36 41/46/36
f 28/59/37 39/44/37 41/46/37
f 26/31/38 40/45/38 39/44/38
f 26/31/39 21/24/39 40/45/39
f 21/24/40 36/41/40 40/45/40
f 25/60/41 37/42/41 36/41/41
f 25/30/42 18/21/42 37/49/42
f 18/21/43 33/38/43 37/49/43
f 24/29/44 34/39/44 33/38/44
f 24/29/45 15/28/45 34/39/45
f 15/18/46 30/35/46 34/54/46
f 23/26/47 31/36/47 30/35/47
f 23/26/48 12/15/48 31/36/48
f 12/61/49 27/32/49 31/57/49
f 22/25/50 28/33/50 27/32/50
f 22/25/51 9/12/51 28/33/51
f 9/62/52 39/44/52 28/59/52
f 21/24/53 25/60/53 36/41/53
f 21/24/54 20/23/54 25/60/54
f 20/63/55 16/19/55 25/30/55
f 18/21/56 24/29/57 33/38/58
f 18/21/56 17/20/59 24/29/57
f 17/20/60 13/27/60 24/29/60
f 15/18/61 23/26/61 30/35/61
f 15/18/62 14/17/62 23/26/62
f 14/17/63 10/13/63 23/26/63
f 12/61/64 22/25/64 27/32/64
f 12/61/65 11/64/65 22/25/65
f 11/64/66 4/4/66 22/25/66
f 9/62/67 26/31/67 39/44/67
f 9/62/68 5/65/68 26/31/68
f 5/65/69 19/22/69 26/31/69
f 8/66/70 20/23/70 19/22/70
f 8/11/71 7/10/71 20/63/71
f 7/10/72 16/19/72 20/63/72
f 7/10/73 17/20/73 16/19/73
f 7/10/74 6/9/74 17/20/74
f 6/9/75 13/27/75 17/20/75
f 6/7/76 14/17/76 13/16/76
f 6/7/77 3/3/77 14/17/77
f 3/3/78 10/13/78 14/17/78
f 5/65/79 8/66/79 19/22/79
f 5/65/80 2/67/80 8/66/80
f 2/67/81 1/68/81 8/66/81
f 3/3/82 11/14/82 10/13/82
f 3/3/83 2/2/83 11/14/83
f 2/5/84 4/4/84 11/64/84
